<svg width="77" height="93" viewBox="0 0 77 93" fill="none" xmlns="http://www.w3.org/2000/svg">
<path fill-rule="evenodd" clip-rule="evenodd" d="M12.1003 91.8762C10.9997 91.892 9.89327 91.848 8.79973 91.936C5.73361 92.1831 3.20078 91.2355 1.21531 88.9614C1.21882 88.8723 1.18483 88.8012 1.11217 88.746C1.04301 88.649 0.975035 88.5519 0.907055 88.4549C0.76758 88.1583 0.626932 87.8616 0.486284 87.5649L0.312819 87.2378C0.018631 86.0511 -0.00012207 84.8464 -0.00012207 83.6326C0.00691031 59.5776 0.00456618 35.5214 0.00925444 11.4653C0.00925444 10.5448 0.056137 9.62432 0.0807503 8.70386C0.786332 12.503 3.15038 14.6418 7.11782 15.0298C8.75168 15.1888 10.4113 15.0896 12.0592 15.1076C12.0733 15.7371 12.0991 16.3665 12.0991 16.9959C12.1003 41.9557 12.1003 66.9165 12.1003 91.8762Z" fill="#9013FE"/>
<mask id="mask0" mask-type="alpha" maskUnits="userSpaceOnUse" x="2" y="3" width="75" height="13">
<path fill-rule="evenodd" clip-rule="evenodd" d="M76.2556 3.4104V15.1102H2.43176V3.4104H76.2556V3.4104Z" fill="white"/>
</mask>
<g mask="url(#mask0)">
<path fill-rule="evenodd" clip-rule="evenodd" d="M76.256 3.76009C76.2243 6.76288 76.1927 9.76454 76.161 12.7662C73.3703 12.7673 70.5785 12.7696 67.7866 12.7707C67.7691 12.3861 67.7397 12.0025 67.7374 11.619C67.7233 9.17684 67.7257 9.21971 65.1577 9.2558C64.2669 9.26708 64.0735 9.56939 64.0923 10.3489C64.1274 11.9337 64.07 13.5209 64.0501 15.108C63.6856 15.108 63.3199 15.108 62.9554 15.1091C62.9355 13.469 62.8886 11.8288 62.9108 10.1898C62.9202 9.51412 62.7104 9.25129 61.9767 9.26709C60.1729 9.30657 58.3656 9.30657 56.5618 9.26709C55.8269 9.25016 55.6206 9.51638 55.6288 10.1909C55.6511 11.8299 55.6042 13.4701 55.5843 15.1102C55.2198 15.1091 54.8541 15.1091 54.4884 15.1091C54.4696 13.7634 54.3466 12.4086 54.4603 11.073C54.5798 9.67656 54.2176 9.18925 52.6318 9.21294C51.1222 9.2355 50.5503 9.58632 50.7858 11.0448C50.8773 11.6043 50.7694 12.1943 50.753 12.7707C49.193 12.7707 47.633 12.7685 46.0718 12.7707C35.5525 12.7865 25.0333 12.8034 14.514 12.8192C13.71 12.8192 12.9059 12.8192 12.1019 12.8181C10.5501 12.8012 8.99826 12.8012 7.44645 12.7628C4.63116 12.6951 2.47339 10.7155 2.43237 8.18644C2.39017 5.59876 4.56904 3.53561 7.44645 3.46567C8.99826 3.42732 10.5501 3.42732 12.1019 3.4104H14.514C14.916 3.42619 15.318 3.45552 15.72 3.45552C35.8631 3.45778 56.0062 3.45552 76.1493 3.45439C76.1845 3.55704 76.2208 3.65856 76.256 3.76009Z" fill="#F4F4F5"/>
</g>
<path fill-rule="evenodd" clip-rule="evenodd" d="M76.1495 3.45494C56.0064 3.45606 35.8633 3.45719 15.7202 3.45606C15.3182 3.45606 14.9162 3.42674 14.5142 3.40982C14.5142 2.66645 14.513 1.92196 14.5118 1.17746C19.2915 1.16167 24.07 1.1346 28.8497 1.13234C43.4911 1.1267 58.1325 1.12896 72.7739 1.13234C74.9481 1.13234 75.6678 1.6377 76.1495 3.45494Z" fill="#426A80"/>
<mask id="mask1" mask-type="alpha" maskUnits="userSpaceOnUse" x="0" y="1" width="13" height="15">
<path fill-rule="evenodd" clip-rule="evenodd" d="M0.064209 1.12793H12.1454V15.1219H0.064209V1.12793L0.064209 1.12793Z" fill="white"/>
</mask>
<g mask="url(#mask1)">
<path fill-rule="evenodd" clip-rule="evenodd" d="M7.4466 3.46544C4.56919 3.53538 2.39032 5.59853 2.43251 8.18621C2.47354 10.7152 4.63013 12.6949 7.4466 12.7637C8.99841 12.8009 10.5502 12.8009 12.102 12.8179C12.1161 13.577 12.1302 14.3351 12.1454 15.092L12.0598 15.1077C10.4119 15.0897 8.75111 15.189 7.11725 15.0288C3.15099 14.6419 0.786936 12.5031 0.081354 8.70397C-0.194081 4.57993 2.87907 1.26467 7.14186 1.14397C8.7933 1.09773 10.4471 1.16315 12.1009 1.17782C12.1009 1.92231 12.102 2.66567 12.102 3.41017C10.5502 3.42709 8.99841 3.42709 7.4466 3.46544Z" fill="#9013FE"/>
</g>
<path fill-rule="evenodd" clip-rule="evenodd" d="M12.102 3.41033C12.102 2.66584 12.1008 1.92247 12.1008 1.17798H14.5118C14.5129 1.92247 14.5141 2.66584 14.5141 3.41033H12.102Z" fill="#3A5F73"/>
<path fill-rule="evenodd" clip-rule="evenodd" d="M0.312744 87.2373L0.48621 87.5644L0.312744 87.2373Z" fill="#43A691"/>
<path fill-rule="evenodd" clip-rule="evenodd" d="M0.907349 88.4546C0.975328 88.5516 1.04331 88.6486 1.11246 88.7456C1.04448 88.6486 0.9765 88.5516 0.907349 88.4546Z" fill="#43A691"/>
<path fill-rule="evenodd" clip-rule="evenodd" d="M76.1587 15.1141C76.174 16.3245 76.2009 17.536 76.2009 18.7475C76.2013 22.411 76.2016 26.0746 76.2019 29.7381C76.2032 49.2419 76.2031 68.7456 76.2021 88.2494C76.2021 91.2172 75.466 91.9244 72.3753 91.9244C53.6422 91.9244 34.9079 91.9244 16.1737 91.9222C15.6205 91.9222 15.0672 91.8917 14.5152 91.8759C14.5105 66.2947 14.507 40.7134 14.5023 15.1322C26.5875 15.1164 38.6726 15.1006 50.7566 15.0859L50.8457 15.1175C50.8316 21.8394 50.7941 28.5601 50.8281 35.2809C50.8328 36.322 50.2256 37.758 51.5255 38.3028C52.7303 38.8082 53.5402 37.5313 54.4697 36.9346C54.976 36.7857 55.3757 36.4935 55.6875 36.0829C56.0684 35.8517 56.454 35.6272 56.829 35.3869C58.6035 34.2476 59.9362 34.2476 61.7095 35.3869C62.0857 35.6272 62.4714 35.8517 62.8523 36.084C63.1652 36.4924 63.5625 36.7857 64.0712 36.9346C64.5072 37.2572 64.9315 37.5944 65.3816 37.9001C65.9184 38.2668 66.5033 38.6762 67.1737 38.2983C67.7691 37.9633 67.7339 37.3147 67.7339 36.7326C67.7222 29.5268 67.7081 22.3222 67.6941 15.1175L67.7831 15.0859C70.575 15.0949 73.3669 15.1051 76.1587 15.1141L6.42139 3.45532Z" fill="#9013FE"/>
<path fill-rule="evenodd" clip-rule="evenodd" d="M14.5028 15.1323C14.5063 40.7135 14.511 66.2948 14.5145 91.8761H12.1C12.1 66.9163 12.1012 41.9555 12.0989 16.9958C12.0989 16.3663 12.0731 15.7369 12.0602 15.1086L12.1446 15.0928L14.5379 15.0635L14.5028 15.1323Z" fill="#1C2933"/>
<path fill-rule="evenodd" clip-rule="evenodd" d="M76.1586 15.114C73.3668 15.105 70.5749 15.0948 67.7831 15.0858C67.7843 14.3142 67.7854 13.5416 67.7866 12.77C70.5785 12.7689 73.3703 12.7677 76.161 12.7666C76.1598 13.5494 76.1586 14.3312 76.1586 15.114Z" fill="#426A80"/>
<path fill-rule="evenodd" clip-rule="evenodd" d="M50.7567 15.0855C38.6716 15.1013 26.5876 15.1159 14.5024 15.1329L14.5388 15.0629C14.5306 14.315 14.5224 13.5672 14.5142 12.8193C25.0334 12.8035 35.5527 12.7866 46.072 12.7708C47.632 12.7685 49.1932 12.7708 50.7532 12.7708L50.7567 15.0855Z" fill="#426A80"/>
<path fill-rule="evenodd" clip-rule="evenodd" d="M55.5845 15.1097C55.6044 13.4695 55.6513 11.8294 55.629 10.1904C55.6196 9.51696 55.8271 9.25074 56.5608 9.26653C58.3658 9.30602 60.1731 9.30602 61.9769 9.26653C62.7106 9.25074 62.9192 9.5147 62.9099 10.1893C62.8888 11.8283 62.9357 13.4684 62.9556 15.1086L62.8419 15.0883H55.697L55.5845 15.1097Z" fill="#F5A623"/>
<path fill-rule="evenodd" clip-rule="evenodd" d="M55.687 36.0833C55.3752 36.4928 54.9767 36.7861 54.4692 36.9339C54.4563 36.1149 54.4352 35.296 54.4328 34.4759C54.4117 28.0135 54.3942 21.5511 54.3766 15.0886L54.4891 15.1089C54.8536 15.1089 55.2193 15.1089 55.585 15.1101L55.6963 15.0886C55.6928 22.0869 55.6905 29.0851 55.687 36.0833Z" fill="#E5E4E4"/>
<path fill-rule="evenodd" clip-rule="evenodd" d="M64.0706 36.9343C63.5631 36.7854 63.1646 36.4921 62.8528 36.0837L62.8423 15.0879L62.9548 15.1082C63.3205 15.1082 63.685 15.1082 64.0507 15.1082L64.1632 15.0879C64.1444 15.6666 64.1116 16.243 64.1105 16.8205C64.094 23.5255 64.0835 30.2304 64.0706 36.9343Z" fill="#E5E4E4"/>
<path fill-rule="evenodd" clip-rule="evenodd" d="M50.7567 15.0855L50.7532 12.7708C50.7696 12.1943 50.8774 11.6044 50.786 11.0438C50.5504 9.58635 51.1224 9.23554 52.632 9.21298C54.2178 9.18929 54.58 9.67659 54.4604 11.0731C54.3467 12.4087 54.4698 13.7634 54.4886 15.1091L54.376 15.0877C53.1993 15.0979 52.0225 15.108 50.8458 15.1182L50.7567 15.0855Z" fill="#F5A623"/>
<path fill-rule="evenodd" clip-rule="evenodd" d="M67.7866 12.7704C67.7854 13.542 67.7842 14.3147 67.7831 15.0862L67.694 15.1178C66.5172 15.1077 65.3405 15.0975 64.1637 15.0885L64.05 15.1077C64.07 13.5217 64.1274 11.9334 64.0922 10.3485C64.0747 9.56909 64.2669 9.26791 65.1576 9.2555C67.7256 9.22053 67.7233 9.17654 67.7374 11.6187C67.7397 12.0022 67.769 12.3869 67.7866 12.7704Z" fill="#F5A623"/>
<path fill-rule="evenodd" clip-rule="evenodd" d="M14.5143 12.8188C14.5225 13.5679 14.5307 14.3157 14.5389 15.0636L12.1455 15.0929C12.1303 14.3349 12.1162 13.5769 12.1022 12.8188C12.9062 12.8188 13.7102 12.8188 14.5143 12.8188Z" fill="#3A5F73"/>
<path fill-rule="evenodd" clip-rule="evenodd" d="M62.8425 15.0881L62.853 36.0829C62.4721 35.8516 62.0853 35.6271 61.7102 35.3869C59.9357 34.2476 58.6043 34.2476 56.8298 35.3869C56.4547 35.6271 56.0679 35.8516 55.687 36.0829C55.6905 29.0846 55.6929 22.0864 55.6964 15.0881H62.8425Z" fill="#F8E71C"/>
<path fill-rule="evenodd" clip-rule="evenodd" d="M50.846 15.118C52.0228 15.1078 53.1995 15.0976 54.3763 15.0886C54.395 21.5511 54.4114 28.0135 54.4337 34.4759C54.436 35.296 54.4571 36.1149 54.4689 36.9339C53.5406 37.5317 52.7307 38.8075 51.5258 38.3033C50.226 37.7573 50.8331 36.3225 50.8273 35.2813C50.7944 28.5606 50.8319 21.8387 50.846 15.118Z" fill="#F8E71C"/>
<path fill-rule="evenodd" clip-rule="evenodd" d="M64.1633 15.0881C65.34 15.0972 66.5168 15.1073 67.6935 15.1175C67.7076 22.3221 67.7228 29.5268 67.7334 36.7315C67.7334 37.3147 67.7685 37.9633 67.1731 38.2983C66.5039 38.6762 65.919 38.2667 65.381 37.9001C64.9321 37.5944 64.5067 37.2571 64.0707 36.9345C64.0836 30.2296 64.0941 23.5246 64.1105 16.8208C64.1117 16.2432 64.1445 15.6657 64.1633 15.0881Z" fill="#F8E71C"/>
</svg>
