<svg viewBox="0 0 160 20" version="1.1" xmlns="http://www.w3.org/2000/svg" xmlns:xlink="http://www.w3.org/1999/xlink">
    <defs>
        <polygon id="path-1" points="0.00019138756 0.0109433962 20.0066986 0.0109433962 20.0066986 19.6223396 0.00019138756 19.6223396"></polygon>
        <polygon id="path-3" points="0.0535502392 0.351886792 28.0711579 0.351886792 28.0711579 19.6226415 0.0535502392 19.6226415"></polygon>
        <polygon id="path-5" points="0.00156937799 0.0117735849 28.0195215 0.0117735849 28.0195215 19.2808302 0.00156937799 19.2808302"></polygon>
    </defs>
    <g id="Page-1" stroke="none" stroke-width="1" fill="none" fill-rule="evenodd">
        <g id="Онлайн-образование-СРО+Курсон-1440" transform="translate(-214.000000, -27.000000)">
            <g id="courson" transform="translate(214.000000, 27.000000)">
                <rect id="Background" x="0" y="0" width="160" height="20"></rect>
                <g id="Group-18">
                    <g id="Group-3" transform="translate(0.000000, 0.366491)">
                        <mask id="mask-2" fill="white">
                            <use xlink:href="#path-1"></use>
                        </mask>
                        <g id="Clip-2"></g>
                        <path d="M13.9894737,4.73403774 C13.3762679,4.62083019 12.7247847,4.54573585 11.6120574,4.54573585 C8.04842105,4.54573585 6.62985646,7.26611321 6.62985646,9.98649057 C6.62985646,12.6321509 7.89492823,14.9744151 11.6507177,14.9744151 C14.8323445,14.9744151 16.021244,14.5215849 18.1284211,13.7657358 C19.6618182,14.3317736 20.0066986,15.8064906 20.0066986,17.2034717 C17.4382775,18.7902642 13.9894737,19.6223396 10.7707177,19.6223396 C5.55617225,19.6223396 0.00019138756,17.5446038 0.00019138756,9.98649057 C0.00019138756,3.75177358 5.05818182,0.0106415094 11.8432536,0.0106415094 C14.2566507,0.0106415094 16.8250718,0.653660377 19.1622967,1.56083019 L19.1622967,7.68233962 C19.1622967,8.21139623 18.3971292,8.62611321 17.1711005,8.62611321 C16.0970335,8.62611321 14.6026794,8.32498113 14.4488038,7.41592453 L13.9894737,4.73403774 Z" id="Fill-1" fill="#000000" mask="url(#mask-2)"></path>
                    </g>
                    <path d="M35.5291483,10.2024528 C35.5291483,7.48207547 34.1105837,4.91301887 31.4659904,4.91301887 C28.8217799,4.91301887 27.4032153,7.48207547 27.4032153,10.2024528 C27.4032153,12.9224528 28.8217799,15.4537736 31.4659904,15.4537736 C34.1105837,15.4537736 35.5291483,12.9224528 35.5291483,10.2024528 M31.4659904,0.378301887 C37.4832153,0.378301887 42.1607273,3.7409434 42.1607273,10.2024528 C42.1607273,16.6639623 37.4832153,19.9884906 31.4659904,19.9884906 C25.4491483,19.9884906 20.7727847,16.6639623 20.7727847,10.2024528 C20.7727847,3.7409434 25.4491483,0.378301887 31.4659904,0.378301887" id="Fill-4" fill="#000000"></path>
                    <g id="Group-8" transform="translate(41.722488, 0.366491)">
                        <mask id="mask-4" fill="white">
                            <use xlink:href="#path-3"></use>
                        </mask>
                        <g id="Clip-7"></g>
                        <path d="M4.26866986,5.07528302 L1.31823923,4.6209434 C0.55154067,4.50924528 0.0535502392,3.48849057 0.0535502392,2.35490566 C0.0535502392,1.29603774 0.35938756,0.351886792 1.04991388,0.351886792 L8.10216268,0.351886792 C10.3632153,0.351886792 10.7838852,1.40924528 10.7838852,3.60056604 L10.7838852,11.6496226 C10.7838852,13.1979245 11.2818756,14.7096226 13.5448421,14.7096226 C15.0391962,14.7096226 17.3377608,14.0673585 17.3377608,10.9322642 L17.3377608,4.96207547 L14.8872344,4.54584906 C14.1190048,4.43264151 13.7745072,3.33716981 13.7745072,2.31641509 C13.7745072,1.29603774 14.0416842,0.351886792 14.6946986,0.351886792 L26.1530718,0.351886792 C26.8435981,0.351886792 27.1123062,1.25792453 27.1123062,2.24018868 C27.1123062,3.29867925 26.7674258,4.3945283 25.9995789,4.54584906 L23.8545072,4.96207547 L23.8545072,14.5583019 L26.8064689,15.0126415 C27.5731675,15.1258491 28.0711579,16.1466038 28.0711579,17.2801887 C28.0711579,18.3375472 27.7637895,19.2813208 27.0732632,19.2813208 L20.404555,19.2813208 C18.5266603,19.2813208 17.5302967,18.715283 17.5302967,16.9024528 C16.0355598,18.715283 13.5448421,19.6228302 11.3209187,19.6228302 C7.98579904,19.6228302 4.26866986,18.715283 4.26866986,12.480566 L4.26866986,5.07528302 Z" id="Fill-6" fill="#000000" mask="url(#mask-4)"></path>
                    </g>
                    <path d="M74.3922297,15.0390189 L74.3922297,5.44128302 L71.4402679,4.9869434 C70.6724211,4.87486792 70.1740478,3.85449057 70.1740478,2.72090566 C70.1740478,1.66354717 70.4829474,0.717886792 71.1704115,0.717886792 L77.8406507,0.717886792 C79.7185455,0.717886792 80.7149091,1.43562264 80.7149091,3.25033962 C82.3260096,1.43562264 84.3198852,0.378264151 87.0019904,0.378264151 C88.381512,0.378264151 88.6888804,0.415245283 89.913378,0.679773585 C90.1832344,1.24732075 90.2984498,1.92656604 90.2984498,2.64581132 C90.2984498,4.00467925 89.8000766,5.55449057 88.9947177,6.19562264 L85.5834258,5.44128302 C82.9392153,5.44128302 80.907445,5.74279245 80.907445,9.2205283 L80.907445,15.0390189 L83.3595024,15.4537358 C84.1277321,15.5680755 84.4710813,16.6639245 84.4710813,17.6843019 C84.4710813,18.7035472 84.2035215,19.6473208 83.5520383,19.6473208 L72.092134,19.6473208 C71.4016077,19.6473208 71.1344306,18.7416604 71.1344306,17.7593962 C71.1344306,16.7020377 71.479311,15.6050566 72.2460096,15.4537358 L74.3922297,15.0390189 Z" id="Fill-9" fill="#000000"></path>
                    <path d="M90.6813014,13.5649434 C90.6813014,13.0358868 91.3691483,12.619283 92.5967081,12.619283 C93.669244,12.619283 95.0499139,12.9604151 95.2799617,13.8294717 L95.7779522,15.719283 C96.850488,16.0589057 98.0780478,16.3238113 99.5337416,16.3238113 C101.872498,16.3238113 102.44666,15.8690943 102.44666,15.3030566 C102.44666,14.5106038 101.833837,14.019283 97.6945072,12.4694717 C92.7888612,10.6562642 90.9871388,8.91701887 90.9871388,6.0830566 C90.9871388,2.26758491 94.9741244,0.377773585 100.531636,0.377773585 C103.5969,0.377773585 106.280153,0.830603774 108.695081,1.62456604 L108.695081,6.61249057 C108.695081,7.14192453 107.928383,7.55815094 106.701206,7.55815094 C105.628287,7.55815094 104.326086,7.21701887 104.095273,6.34796226 L103.5969,4.42003774 C102.945033,4.23211321 101.98733,4.04230189 100.952306,4.04230189 C98.6150813,4.04230189 97.9628325,4.91249057 97.9628325,5.47890566 C97.9628325,6.49928302 98.7295311,6.76267925 101.911541,7.85966038 C107.77489,9.90041509 109.42312,11.7136226 109.42312,14.434 C109.42312,18.5894717 105.130297,19.9879623 99.7649378,19.9879623 C95.6619713,19.9879623 92.6349856,19.3468302 90.6813014,18.4777736 L90.6813014,13.5649434 Z" id="Fill-11" fill="#000000"></path>
                    <g id="Group-15" transform="translate(131.674641, 0.366491)">
                        <mask id="mask-6" fill="white">
                            <use xlink:href="#path-5"></use>
                        </mask>
                        <g id="Clip-14"></g>
                        <path d="M4.21860287,14.6725283 L4.21860287,5.07479245 L1.26664115,4.62045283 C0.498411483,4.50837736 0.00156937799,3.488 0.00156937799,2.35441509 C0.00156937799,1.2970566 0.308937799,0.351396226 0.996784689,0.351396226 L7.66702392,0.351396226 C9.54491866,0.351396226 10.5416651,0.880830189 10.5416651,2.69403774 C12.0360191,0.880830189 14.5282679,0.0117735849 16.7491292,0.0117735849 C20.0842488,0.0117735849 23.8044402,0.917811321 23.8044402,7.15403774 L23.8044402,14.5593208 L26.7533397,15.0121509 C27.5215694,15.1253585 28.0195598,16.1457358 28.0195598,17.2796981 C28.0195598,18.3370566 27.7125742,19.2808302 27.0231962,19.2808302 L19.9709474,19.2808302 C17.7098947,19.2808302 17.2865455,18.2234717 17.2865455,16.0313962 L17.2865455,7.98309434 C17.2865455,6.43479245 16.7881722,4.9234717 14.5282679,4.9234717 C13.032,4.9234717 10.7338182,5.52913208 10.7338182,8.66422642 L10.7338182,14.6725283 L13.1858756,15.0872453 C13.9541053,15.2015849 14.2970718,16.297434 14.2970718,17.3178113 C14.2970718,18.3370566 14.0287464,19.2808302 13.3784115,19.2808302 L1.91850718,19.2808302 C1.22798086,19.2808302 0.960803828,18.3751698 0.960803828,17.3929057 C0.960803828,16.3355472 1.30568421,15.238566 2.07238278,15.0872453 L4.21860287,14.6725283 Z" id="Fill-13" fill="#000000" mask="url(#mask-6)"></path>
                    </g>
                    <path d="M117.868057,15.6573585 L117.868057,4.7090566 L127.485665,10.1837736 L117.868057,15.6573585 Z M121.419828,0.378113208 C115.401455,0.378113208 110.727005,3.74113208 110.727005,10.2022642 C110.727005,16.6633962 115.401455,19.9883019 121.419828,19.9883019 C127.437053,19.9883019 132.114565,16.6633962 132.114565,10.2022642 C132.114565,3.74113208 127.437053,0.378113208 121.419828,0.378113208 Z" id="Fill-16" fill="#76BC21"></path>
                </g>
            </g>
        </g>
    </g>
</svg>