<svg width="76" height="80" viewBox="0 0 76 80" fill="none" xmlns="http://www.w3.org/2000/svg">
<path fill-rule="evenodd" clip-rule="evenodd" d="M9.29095 18L0 26.6545V80H44V18H9.29095Z" fill="white"/>
<path fill-rule="evenodd" clip-rule="evenodd" d="M9.07936 18L0 26.7609H9.07936V18Z" fill="#E6E8E9"/>
<mask id="mask0" mask-type="alpha" maskUnits="userSpaceOnUse" x="0" y="26" width="10" height="10">
<path fill-rule="evenodd" clip-rule="evenodd" d="M0 26.4766V35.3767H9.4613V26.4766H0Z" fill="white"/>
</mask>
<g mask="url(#mask0)">
<path fill-rule="evenodd" clip-rule="evenodd" d="M9.46126 26.4766L-0.000366211 35.3767V26.4766H9.46126Z" fill="#D2D4D5"/>
</g>
<path fill-rule="evenodd" clip-rule="evenodd" d="M10.4762 29.4566H39.1111V26.761H10.4762V29.4566Z" fill="#D2D4D5"/>
<path fill-rule="evenodd" clip-rule="evenodd" d="M10.4762 32.1226H26.5397V30.8044H10.4762V32.1226Z" fill="#E6E8E9"/>
<path fill-rule="evenodd" clip-rule="evenodd" d="M20.254 39.5368H38.4128V38.2173H20.254V39.5368Z" fill="#E6E8E9"/>
<path fill-rule="evenodd" clip-rule="evenodd" d="M20.254 44.2557H38.4128V42.9348H20.254V44.2557Z" fill="#E6E8E9"/>
<path fill-rule="evenodd" clip-rule="evenodd" d="M20.254 48.9703H38.4128V47.6521H20.254V48.9703Z" fill="#E6E8E9"/>
<path fill-rule="evenodd" clip-rule="evenodd" d="M20.254 53.6892H38.4128V52.3696H20.254V53.6892Z" fill="#E6E8E9"/>
<path fill-rule="evenodd" clip-rule="evenodd" d="M4.88892 57.734H39.1111V56.4131H4.88892V57.734Z" fill="#E6E8E9"/>
<path fill-rule="evenodd" clip-rule="evenodd" d="M4.88892 62.4512H39.1111V61.1304H4.88892V62.4512Z" fill="#E6E8E9"/>
<path fill-rule="evenodd" clip-rule="evenodd" d="M4.88892 67.1674H39.1111V65.8479H4.88892V67.1674Z" fill="#E6E8E9"/>
<path fill-rule="evenodd" clip-rule="evenodd" d="M4.88892 71.8847H39.1111V70.5652H4.88892V71.8847Z" fill="#E6E8E9"/>
<path fill-rule="evenodd" clip-rule="evenodd" d="M4.88892 75.9295H39.1111V74.6086H4.88892V75.9295Z" fill="#E6E8E9"/>
<path fill-rule="evenodd" clip-rule="evenodd" d="M9.83891 46.1925V39.1694C5.8659 39.1694 2.64685 42.3128 2.64685 46.1925C2.64685 50.0721 5.8659 53.2171 9.83891 53.2171C13.8119 53.2171 17.0326 50.0721 17.0326 46.1925H9.83891Z" fill="#D2D4D5"/>
<path fill-rule="evenodd" clip-rule="evenodd" d="M10.7798 38.521V45.5456H17.9734C17.9734 41.6659 14.7528 38.521 10.7798 38.521Z" fill="#9013FE"/>
<path fill-rule="evenodd" clip-rule="evenodd" d="M47.9481 47.7951C47.9481 49.8561 46.2196 51.5255 44.0909 51.5255C41.9606 51.5255 40.2338 49.8561 40.2338 47.7951C40.2338 45.7373 41.9606 44.0679 44.0909 44.0679C46.2196 44.0679 47.9481 45.7373 47.9481 47.7951Z" fill="#465462"/>
<path fill-rule="evenodd" clip-rule="evenodd" d="M43.7403 44.0694C43.7403 46.3149 41.8556 48.1356 39.5317 48.1356C37.2077 48.1356 35.3247 46.3149 35.3247 44.0694C35.3247 41.8223 37.2077 40 39.5317 40C41.8556 40 43.7403 41.8223 43.7403 44.0694Z" fill="#465462"/>
<path fill-rule="evenodd" clip-rule="evenodd" d="M39.5324 38.9829C39.5324 41.7883 37.1772 44.0677 34.2727 44.0677C31.3647 44.0677 29.0129 41.7883 29.0129 38.9829C29.0129 36.1743 31.3647 33.8982 34.2727 33.8982C37.1772 33.8982 39.5324 36.1743 39.5324 38.9829Z" fill="#424F59"/>
<path fill-rule="evenodd" clip-rule="evenodd" d="M37.4286 35.5933C37.4286 39.5249 34.1326 42.7119 30.0683 42.7119C26.0006 42.7119 22.7013 39.5249 22.7013 35.5933C22.7013 31.6616 26.0006 28.4746 30.0683 28.4746C34.1326 28.4746 37.4286 31.6616 37.4286 35.5933Z" fill="#004669"/>
<path fill-rule="evenodd" clip-rule="evenodd" d="M38.1299 25.0831C38.1299 30.3261 34.5146 34.5763 30.0667 34.5763C25.6102 34.5763 22 30.3261 22 25.0831C22 19.8419 25.6102 15.5933 30.0667 15.5933C34.5146 15.5933 38.1299 19.8419 38.1299 25.0831Z" fill="#004669"/>
<path fill-rule="evenodd" clip-rule="evenodd" d="M41.6363 14.238C41.6363 18.3585 38.1835 21.6948 33.9229 21.6948C29.6606 21.6948 26.2078 18.3585 26.2078 14.238C26.2078 10.1159 29.6606 6.77954 33.9229 6.77954C38.1835 6.77954 41.6363 10.1159 41.6363 14.238Z" fill="#004669"/>
<path fill-rule="evenodd" clip-rule="evenodd" d="M47.9481 9.82973C47.9481 14.1328 44.339 17.6272 39.8865 17.6272C35.4307 17.6272 31.8182 14.1328 31.8182 9.82973C31.8182 5.5267 35.4307 2.03394 39.8865 2.03394C44.339 2.03394 47.9481 5.5267 47.9481 9.82973Z" fill="#004669"/>
<path fill-rule="evenodd" clip-rule="evenodd" d="M48.4855 46.7607C48.4855 44.5591 46.771 42.7728 44.656 42.7728C44.6359 42.7728 44.6225 42.7794 44.6074 42.7794C44.6225 42.6086 44.656 42.4428 44.656 42.2639C44.656 40.6024 43.8499 39.1395 42.6181 38.2727C42.6885 37.8688 42.7321 37.4567 42.7321 37.0331C42.7321 35.4702 42.2293 34.0336 41.3796 32.8778C42.5259 31.2705 43.2298 29.1509 43.2298 26.8163C43.2298 25.3896 42.9617 24.0483 42.5008 22.8481C43.7929 22.2013 44.8638 21.1456 45.5443 19.8371C49.2497 19.494 52.1558 16.258 52.1558 12.3112C52.1558 8.13285 48.9079 4.74585 44.8923 4.74585C41.7969 4.74585 39.164 6.76688 38.1182 9.60224C35.0714 10.2967 32.7922 13.1124 32.7922 16.4912C32.7922 17.2398 32.9078 17.9573 33.1139 18.6353C30.6922 20.0768 29.0129 23.1929 29.0129 26.8163C29.0129 29.1509 29.7168 31.2705 30.8581 32.8778C30.0118 34.0336 29.509 35.4702 29.509 37.0331C29.509 40.6763 32.229 43.6479 35.668 43.8925C36.3116 45.7559 38.0043 47.094 40.0154 47.094C40.3003 47.094 40.5768 47.0595 40.8483 47.0037C40.9757 49.0904 42.6181 50.7486 44.656 50.7486C44.7482 50.7486 44.8303 50.7256 44.9141 50.7207C45.0281 52.681 46.5716 54.2374 48.4855 54.2374C50.4665 54.2374 52.077 52.5628 52.077 50.5007C52.077 48.4353 50.4665 46.7607 48.4855 46.7607Z" fill="#303941"/>
<path fill-rule="evenodd" clip-rule="evenodd" d="M50.052 48.4755C50.052 50.5344 51.7789 52.2035 53.9124 52.2035C56.0394 52.2035 57.7663 50.5344 57.7663 48.4755C57.7663 46.4149 56.0394 44.7458 53.9124 44.7458C51.7789 44.7458 50.052 46.4149 50.052 48.4755Z" fill="#465462"/>
<path fill-rule="evenodd" clip-rule="evenodd" d="M55.6624 44.7466C55.6624 46.9941 57.5435 48.8136 59.8676 48.8136C62.1968 48.8136 64.0779 46.9941 64.0779 44.7466C64.0779 42.5007 62.1968 40.678 59.8676 40.678C57.5435 40.678 55.6624 42.5007 55.6624 44.7466Z" fill="#465462"/>
<path fill-rule="evenodd" clip-rule="evenodd" d="M58.4675 39.6617C58.4675 42.4675 60.8185 44.7457 63.7256 44.7457C66.6326 44.7457 68.987 42.4675 68.987 39.6617C68.987 36.8527 66.6326 34.5762 63.7256 34.5762C60.8185 34.5762 58.4675 36.8527 58.4675 39.6617Z" fill="#465462"/>
<path fill-rule="evenodd" clip-rule="evenodd" d="M61.2727 36.9492C61.2727 40.8808 64.5728 44.0679 68.6363 44.0679C72.705 44.0679 76 40.8808 76 36.9492C76 33.0176 72.705 29.8306 68.6363 29.8306C64.5728 29.8306 61.2727 33.0176 61.2727 36.9492Z" fill="#004669"/>
<path fill-rule="evenodd" clip-rule="evenodd" d="M59.8701 24.0678C59.8701 29.1215 63.485 33.2204 67.9359 33.2204C72.3902 33.2204 76 29.1215 76 24.0678C76 19.0142 72.3902 14.9153 67.9359 14.9153C63.485 14.9153 59.8701 19.0142 59.8701 24.0678Z" fill="#004669"/>
<path fill-rule="evenodd" clip-rule="evenodd" d="M56.3636 14.238C56.3636 18.3585 59.8148 21.6948 64.0771 21.6948C68.3428 21.6948 71.7922 18.3585 71.7922 14.238C71.7922 10.1159 68.3428 6.77954 64.0771 6.77954C59.8148 6.77954 56.3636 10.1159 56.3636 14.238Z" fill="#004669"/>
<path fill-rule="evenodd" clip-rule="evenodd" d="M51.8266 44.7561C51.6789 42.5639 53.3002 40.6828 55.4359 40.5519C55.4529 40.5502 55.4699 40.5568 55.4886 40.5551C55.4597 40.3865 55.4156 40.2195 55.4037 40.046C55.2967 38.3925 56.0148 36.8847 57.1998 35.945C57.0997 35.5504 57.0284 35.1428 57.0046 34.7187C56.8993 33.1635 57.3221 31.7031 58.0979 30.4998C56.8382 28.974 55.986 26.908 55.8332 24.5832C55.7432 23.1655 55.9249 21.8099 56.3085 20.5886C54.9606 20.0271 53.8112 19.0431 53.0388 17.7809C49.2682 17.6663 46.1172 14.6245 45.8609 10.6954C45.5892 6.5403 48.6553 2.97134 52.7128 2.72577C55.8434 2.53259 58.6361 4.37764 59.8771 7.13622C63.0026 7.64046 65.4914 10.3041 65.7138 13.6635C65.7614 14.4084 65.6918 15.132 65.5288 15.8163C68.072 17.0999 69.9751 20.1007 70.2128 23.7057C70.3656 26.0304 69.79 28.1849 68.7392 29.8515C69.6661 30.9517 70.2773 32.3498 70.374 33.9051C70.6134 37.5281 68.0567 40.6567 64.5984 41.1085C64.0654 43.001 62.4441 44.4401 60.4051 44.5645C60.1199 44.5842 59.8381 44.5629 59.558 44.5285C59.5766 46.6093 58.013 48.361 55.9588 48.4871C55.8671 48.492 55.7806 48.4773 55.6957 48.4773C55.7059 50.4337 54.2424 52.0806 52.3121 52.1968C50.3055 52.318 48.5738 50.7545 48.4363 48.6966C48.3005 46.642 49.8165 44.8772 51.8266 44.7561Z" fill="#303941"/>
<path fill-rule="evenodd" clip-rule="evenodd" d="M50.052 10.5085C50.052 14.8136 53.6657 18.3051 58.1178 18.3051C62.5715 18.3051 66.1819 14.8136 66.1819 10.5085C66.1819 6.20342 62.5715 2.71191 58.1178 2.71191C53.6657 2.71191 50.052 6.20342 50.052 10.5085Z" fill="#004669"/>
<path fill-rule="evenodd" clip-rule="evenodd" d="M41.6364 7.79823C41.6364 12.1017 45.2424 15.5932 49.6988 15.5932C54.1585 15.5932 57.7662 12.1017 57.7662 7.79823C57.7662 3.4915 54.1585 0 49.6988 0C45.2424 0 41.6364 3.4915 41.6364 7.79823Z" fill="#004669"/>
<path fill-rule="evenodd" clip-rule="evenodd" d="M76 79.3221V65.5433C76 59.698 70.9854 54.9153 64.8549 54.9153H35.2473C29.1185 54.9153 24.1039 59.698 24.1039 65.5433V79.3221H76Z" fill="#F8E71C"/>
<path fill-rule="evenodd" clip-rule="evenodd" d="M55.0983 55.1193H62.6754L49.7452 76.6103L36.026 55.1193H43.8622L44.0169 46.1018H55.0983V55.1193Z" fill="#FFE0BD"/>
<path fill-rule="evenodd" clip-rule="evenodd" d="M35.3296 55.2127C29.1555 55.2127 24.1039 60.0698 24.1039 66.0082V79.9999H34.7573L55.6623 52.2024V48.8135H52.0822H44.4843L44.4025 55.2127H35.3296Z" fill="#F5A623"/>
<path fill-rule="evenodd" clip-rule="evenodd" d="M49.7022 51.5254C41.41 51.5254 34.6234 44.9447 34.6234 36.9039V24.1112C34.6234 16.0689 41.41 9.49146 49.7022 9.49146C57.9944 9.49146 64.7793 16.0689 64.7793 24.1112V36.9039C64.7793 44.9447 57.9944 51.5254 49.7022 51.5254Z" fill="#FFE6CA"/>
<path fill-rule="evenodd" clip-rule="evenodd" d="M49.4435 9.49146C49.4126 9.49146 49.3816 9.49473 49.3507 9.49637V51.5204C49.3816 51.5204 49.4126 51.5254 49.4435 51.5254C57.878 51.5254 64.7793 44.9463 64.7793 36.9039V24.1112C64.7793 16.0705 57.878 9.49146 49.4435 9.49146Z" fill="#FFE0BD"/>
<path fill-rule="evenodd" clip-rule="evenodd" d="M34.6606 24.0133C34.6606 24.0133 40.5524 24.3958 43.9453 22.0388C45.1375 21.212 49.6468 18.3946 49.6468 18.3946C49.6468 18.3946 51.1269 20.3966 51.1269 23.8577L54.8381 17.717L56.697 22.5446L64.7087 25.0848C64.7087 25.0848 66.6435 3.38989 50.2462 3.38989C41.5711 3.38989 34.0275 6.97572 34.6606 24.0133Z" fill="#004669"/>
<path fill-rule="evenodd" clip-rule="evenodd" d="M49.2236 18.3052C49.2236 18.3052 44.3795 20.5101 43.0901 21.1702C40.3723 22.5647 36.4719 22.3912 34.6234 22.2068C34.6268 22.7057 34.6166 23.1814 34.637 23.7067C34.637 23.7067 40.5638 24.0739 43.9796 21.821C44.9725 21.1655 48.2561 19.207 49.3507 18.5546C49.2778 18.4043 49.2236 18.3052 49.2236 18.3052Z" fill="#6B747B"/>
<path fill-rule="evenodd" clip-rule="evenodd" d="M50.2772 3.38989C50.2015 3.38989 50.1276 3.39476 50.052 3.39638C50.5494 3.42394 51.0484 3.46446 51.5508 3.51958C64.8183 4.98341 64.2789 19.4661 63.632 24.7428L64.709 25.0848C64.709 25.0848 66.638 3.38989 50.2772 3.38989Z" fill="#303941"/>
</svg>
