<svg width="82" height="86" viewBox="0 0 82 86" fill="none" xmlns="http://www.w3.org/2000/svg">
<mask id="mask0" mask-type="alpha" maskUnits="userSpaceOnUse" x="42" y="27" width="40" height="59">
<path fill-rule="evenodd" clip-rule="evenodd" d="M42 85.2624V27.3557H81.5886V85.2624H42Z" fill="white"/>
</mask>
<g mask="url(#mask0)">
<path fill-rule="evenodd" clip-rule="evenodd" d="M80.3033 85.2623H43.2845C42.5788 85.2623 41.9999 84.7974 41.9999 84.2294V28.3884C41.9999 27.8204 42.5788 27.3555 43.2845 27.3555H80.3041C81.0105 27.3555 81.5886 27.8204 81.5886 28.3884V84.2294C81.5886 84.7974 81.0105 85.2623 80.3033 85.2623Z" fill="#486681"/>
</g>
<mask id="mask1" mask-type="alpha" maskUnits="userSpaceOnUse" x="42" y="27" width="40" height="60">
<path fill-rule="evenodd" clip-rule="evenodd" d="M42 86H81.2453V27.7375H42V86Z" fill="white"/>
</mask>
<g mask="url(#mask1)">
<path fill-rule="evenodd" clip-rule="evenodd" d="M44.2642 78.6249H78.9811V32.8999H44.2642V78.6249Z" fill="#9013FE"/>
<path fill-rule="evenodd" clip-rule="evenodd" d="M69.9245 30.3187C69.9245 30.5225 69.7557 30.6875 69.5472 30.6875C69.3393 30.6875 69.1698 30.5225 69.1698 30.3187C69.1698 30.1156 69.3393 29.95 69.5472 29.95C69.7557 29.95 69.9245 30.1156 69.9245 30.3187Z" fill="#3F3E40"/>
<path fill-rule="evenodd" clip-rule="evenodd" d="M66.844 30.4883H57.1561C57.1222 30.4883 57.0944 30.461 57.0944 30.4279V30.0104C57.0944 29.9772 57.1222 29.95 57.1561 29.95H66.844C66.8778 29.95 66.9057 29.9772 66.9057 30.0104V30.4279C66.9057 30.461 66.8778 30.4883 66.844 30.4883Z" fill="#3F3E40"/>
</g>
<mask id="mask2" mask-type="alpha" maskUnits="userSpaceOnUse" x="28" y="54" width="22" height="31">
<path fill-rule="evenodd" clip-rule="evenodd" d="M49.4425 84.2673H28.391V54.4312H49.4425V84.2673Z" fill="white"/>
</mask>
<g mask="url(#mask2)">
<path fill-rule="evenodd" clip-rule="evenodd" d="M29.8613 84.2676C29.8613 84.2676 49.4425 70.8517 49.4425 69.6356L28.9656 54.4312C28.9656 54.4312 28.391 55.8138 28.391 58.4093V82.9044C28.391 84.0315 29.2307 84.1075 29.8613 84.2676Z" fill="#FFE694"/>
</g>
<mask id="mask3" mask-type="alpha" maskUnits="userSpaceOnUse" x="0" y="58" width="56" height="27">
<path fill-rule="evenodd" clip-rule="evenodd" d="M55.7761 84.9811V58.02H0.000854492V84.9811H55.7761Z" fill="white"/>
</mask>
<g mask="url(#mask3)">
<path fill-rule="evenodd" clip-rule="evenodd" d="M55.777 84.9811V69.7604C55.777 63.3034 50.3888 58.02 43.7983 58.02H11.9762C5.38902 58.02 0.000854492 63.3034 0.000854492 69.7604V84.9811H55.777Z" fill="white"/>
</g>
<mask id="mask4" mask-type="alpha" maskUnits="userSpaceOnUse" x="0" y="0" width="56" height="85">
<path fill-rule="evenodd" clip-rule="evenodd" d="M0 84.2672H56V0H0V84.2672Z" fill="white"/>
</mask>
<g mask="url(#mask4)">
<path fill-rule="evenodd" clip-rule="evenodd" d="M0 85H9.70667V73.2759H0V85Z" fill="#FFE0BD"/>
<path fill-rule="evenodd" clip-rule="evenodd" d="M7.46667 85H8.96001V73.2759H7.46667V85Z" fill="#A8ABAE"/>
<path fill-rule="evenodd" clip-rule="evenodd" d="M46.2933 85H56V73.2759H46.2933V85Z" fill="#FFE0BD"/>
<path fill-rule="evenodd" clip-rule="evenodd" d="M46.2933 85H47.7867V73.2759H46.2933V85Z" fill="#A8ABAE"/>
<path fill-rule="evenodd" clip-rule="evenodd" d="M34.3467 62.3652L28.3734 68.1466L22.4 61.5391V46.1638H34.3467V62.3652Z" fill="#FFE0BD"/>
<path fill-rule="evenodd" clip-rule="evenodd" d="M12.0079 57.4755C5.40371 57.4755 0 62.7256 0 69.1421V84.2672H11.3959L34.3467 54.2218V50.5603H29.9277H22.5394L22.4508 57.4755H12.0079Z" fill="#D2D4D5"/>
<path fill-rule="evenodd" clip-rule="evenodd" d="M27.9992 52.7587C19.1704 52.7587 11.9467 45.6955 11.9467 37.0631V23.329C11.9467 14.695 44.0533 14.695 44.0533 23.329V37.0631C44.0533 45.6955 36.8295 52.7587 27.9992 52.7587Z" fill="#FFE6CA"/>
<path fill-rule="evenodd" clip-rule="evenodd" d="M27.7048 16.8539L27.6266 27.8491V52.7442C27.7222 52.7458 27.8143 52.7587 27.9098 52.7587C37.2 52.7587 44.8 45.695 44.8 37.0619V23.3251C44.8 18.9739 36.2168 16.8184 27.7048 16.8539Z" fill="#FFE0BD"/>
<path fill-rule="evenodd" clip-rule="evenodd" d="M11.0202 33.7019H12.2216C12.2216 33.7019 10.85 22.0464 15.0501 19.9093C19.2519 17.7722 24.2597 18.0586 27.7456 18.6462C27.7456 18.6462 39.6718 17.3037 41.8928 19.6842C45.2887 23.3094 44.2724 33.7019 44.2724 33.7019L45.2887 33.7069C45.2887 33.7069 45.9645 31.0682 45.1285 18.2092C45.1285 18.2092 45.5456 12.0611 41.7293 10.1376C40.2575 9.39429 39.4332 6.98902 40.5545 6.55697C40.5545 6.55697 35.3015 5.67962 33.9481 7.71905C33.9481 7.71905 30.4405 2.54929 31.9273 0C31.9273 0 28.0359 3.3538 27.7456 8.31002C27.7456 8.31002 26.998 2.7827 24.1579 2.34568C24.1579 2.34568 22.4875 4.66321 20.5918 7.42936C20.5918 7.42936 17.2594 4.55892 13.3614 8.20242C13.3614 8.20242 15.7142 9.28173 15.9846 10.5911C15.9846 10.5911 9.24466 13.2629 10.6447 20.5334L11.0202 33.7019Z" fill="#004669"/>
<path fill-rule="evenodd" clip-rule="evenodd" d="M44.8 17.6683C44.8045 17.7195 44.806 17.7635 44.8089 17.8148C44.8089 17.7401 44.8075 17.6697 44.8045 17.5862C44.803 17.636 44.8 17.6683 44.8 17.6683Z" fill="#3F3E40"/>
<path fill-rule="evenodd" clip-rule="evenodd" d="M41.5571 18.9571C39.3564 16.7256 27.5393 17.9835 27.5393 17.9835C24.0852 17.4337 19.1233 17.1651 14.9599 19.1699C12.3111 20.4448 11.8994 25.3318 11.9507 28.7218C11.9837 25.4141 12.526 21.198 14.9599 20.0271C19.1233 18.0223 24.0852 18.2909 27.5393 18.8407C27.5393 18.8407 39.3564 17.5828 41.5571 19.8143C43.5776 21.8564 44.0174 26.175 44.0505 29.3103C44.0885 26.1595 43.7694 21.1933 41.5571 18.9571Z" fill="#3F3E40"/>
<path fill-rule="evenodd" clip-rule="evenodd" d="M27.6266 18.5997C27.7387 18.6173 27.8613 18.6305 27.9703 18.6495C27.9703 18.6495 30.6572 18.3549 33.6 18.3198C31.1129 18.3036 28.6469 18.503 27.6266 18.5997Z" fill="#6E869B"/>
</g>
</svg>
