<svg width="94" height="98" viewBox="0 0 94 98" fill="none" xmlns="http://www.w3.org/2000/svg">
<path fill-rule="evenodd" clip-rule="evenodd" d="M94 98V84.451C94 78.7031 89.3616 74 83.6913 74H56.3058C50.637 74 46 78.7031 46 84.451V98H94Z" fill="white"/>
<mask id="mask0" mask-type="alpha" maskUnits="userSpaceOnUse" x="0" y="0" width="94" height="98">
<path fill-rule="evenodd" clip-rule="evenodd" d="M0 98H94V0H0V98Z" fill="white"/>
</mask>
<g mask="url(#mask0)">
<path fill-rule="evenodd" clip-rule="evenodd" d="M46 98H54V88H46V98Z" fill="#FFE0BD"/>
<path fill-rule="evenodd" clip-rule="evenodd" d="M52 98H54V88H52V98Z" fill="#A8ABAE"/>
<path fill-rule="evenodd" clip-rule="evenodd" d="M86 98H94V88H86V98Z" fill="#FFE0BD"/>
<path fill-rule="evenodd" clip-rule="evenodd" d="M86 98H88V88H86V98Z" fill="#A8ABAE"/>
<path fill-rule="evenodd" clip-rule="evenodd" d="M76 78.0031L71 83L66 77.289V64H76V78.0031Z" fill="#FFE0BD"/>
<path fill-rule="evenodd" clip-rule="evenodd" d="M56.4882 74.9507C50.7199 74.9507 46 79.4674 46 84.9877V98H55.9538L76 72.15V69H72.1403H65.687L65.6096 74.9507H56.4882Z" fill="#D2D4D5"/>
<path fill-rule="evenodd" clip-rule="evenodd" d="M69.5 71C62.0745 71 56 64.705 56 57.0101V44.7712C56 37.0763 83 37.0763 83 44.7712V57.0101C83 64.705 76.9255 71 69.5 71Z" fill="#FFE6CA"/>
<path fill-rule="evenodd" clip-rule="evenodd" d="M69.0698 39.0004L69 48.7997V70.9885C69.085 70.9899 69.1639 71 69.2488 71C77.3625 71 84 64.7045 84 57.0104V44.7692C84 40.8897 76.5038 38.9687 69.0698 39.0004Z" fill="#FFE0BD"/>
<path fill-rule="evenodd" clip-rule="evenodd" d="M56.4846 52.9957H57.5117C57.5117 52.9957 56.3377 42.9678 59.9296 41.1291C63.5216 39.2904 67.8025 39.5368 70.7825 40.041C70.7825 40.041 80.9778 38.8874 82.8765 40.934C85.7795 44.0545 84.9107 52.9957 84.9107 52.9957L85.7795 53C85.7795 53 86.3572 50.7284 85.6425 39.6664C85.6425 39.6664 85.9977 34.3769 82.7367 32.7219C81.4785 32.081 80.7738 30.0131 81.7324 29.6413C81.7324 29.6413 77.2418 28.8865 76.0849 30.6411C76.0849 30.6411 73.0863 26.1933 74.3574 24C74.3574 24 71.0307 26.8855 70.7825 31.1482C70.7825 31.1482 70.1434 26.3927 67.7155 26.0181C67.7155 26.0181 66.2876 28.012 64.6656 30.3919C64.6656 30.3919 61.8183 27.9209 58.486 31.057C58.486 31.057 60.4974 31.9856 60.7285 33.1122C60.7285 33.1122 54.9668 35.4109 56.1636 41.666L56.4846 52.9957Z" fill="#004669"/>
<path fill-rule="evenodd" clip-rule="evenodd" d="M84 39.114C84.004 39.184 84.008 39.244 84.012 39.314C84.01 39.212 84.01 39.116 84.006 39C84.002 39.07 84 39.114 84 39.114Z" fill="#3F3E40"/>
<path fill-rule="evenodd" clip-rule="evenodd" d="M80.9008 40.4036C79.0501 38.1197 69.1125 39.4071 69.1125 39.4071C66.2079 38.8444 62.0351 38.5679 58.534 40.6214C56.3065 41.9262 55.9603 46.928 56.0034 50.3976C56.0312 47.0122 56.4872 42.6971 58.534 41.4987C62.0351 39.4452 66.2079 39.7218 69.1125 40.2844C69.1125 40.2844 79.0501 38.997 80.9008 41.2809C82.5986 43.371 82.9698 47.791 82.9976 51C83.0296 47.7751 82.7612 42.6907 80.9008 40.4036Z" fill="#3F3E40"/>
<path fill-rule="evenodd" clip-rule="evenodd" d="M69 41.385C69.0938 41.407 69.1951 41.427 69.2876 41.451C69.2876 41.451 71.5355 41.051 74 41.001C71.9169 40.981 69.854 41.253 69 41.385Z" fill="#6E869B"/>
<path fill-rule="evenodd" clip-rule="evenodd" d="M17 38.5C17 40.4329 15.4343 42 13.5 42C11.5671 42 10 40.4329 10 38.5C10 36.5671 11.5671 35 13.5 35C15.4343 35 17 36.5671 17 38.5Z" fill="#FFE0BD"/>
<path fill-rule="evenodd" clip-rule="evenodd" d="M64 98V81.0646C64 73.8789 57.8169 68 50.2561 68H13.7424C6.18452 68 0 73.8789 0 81.0646V98H64Z" fill="#7ED321"/>
<path fill-rule="evenodd" clip-rule="evenodd" d="M38 73.9253C34.5834 77.9773 28.5863 78.0324 25.1035 74.0429L25 73.9253V57H38V73.9253Z" fill="#FFE0BD"/>
<path fill-rule="evenodd" clip-rule="evenodd" d="M44 68L44.0611 87.5488L52 93L51.6872 68.0599C51.2943 68.0257 50.8985 68 50.4969 68H44Z" fill="#1F191A"/>
<path fill-rule="evenodd" clip-rule="evenodd" d="M13.5185 67.7969C6.0831 67.7969 0 73.7161 0 80.9492V98H12.8301L38 64.1284V60H33.6893H24.5418L24.4428 67.7969H13.5185Z" fill="#417505"/>
<path fill-rule="evenodd" clip-rule="evenodd" d="M30 65C20.0994 65 12 56.705 12 46.5653V30.4347C12 20.2964 20.0994 12 30 12C39.9006 12 48 20.2964 48 30.4347V46.5653C48 56.705 39.9006 65 30 65Z" fill="#FFE6CA"/>
<path fill-rule="evenodd" clip-rule="evenodd" d="M31.114 12C31.077 12 31.0385 12.0058 31 12.0058V64.9928C31.0385 64.9942 31.077 65 31.114 65C41.5019 65 50 56.7036 50 46.5653V30.4347C50 20.2964 41.5019 12 31.114 12Z" fill="#FFE0BD"/>
<path fill-rule="evenodd" clip-rule="evenodd" d="M30 12C20.0994 12 12 20.2379 12 30.3046V40.3011C12.2257 40.1534 12.3738 40.0171 12.3738 40.0171C17.8862 37.5858 24.276 25.6428 24.276 25.6428C24.276 25.6428 32.6617 36.0681 41.7922 37.481L41.8994 60C45.6275 56.6406 48 51.755 48 46.3214V30.3046C48 20.2379 39.9006 12 30 12Z" fill="#1F191A"/>
<path fill-rule="evenodd" clip-rule="evenodd" d="M44.9985 87.5015L44.8363 35.7338C35.5417 34.316 27.0052 23.8545 27.0052 23.8545C27.0052 23.8545 20.5006 35.8389 14.889 38.2787C14.889 38.2787 12.3906 40.5702 12 36.6737V25.1975C12 16.2891 19.2714 9 28.1568 9H35.8418C44.73 9 52 16.2891 52 25.1975V93L44.9985 87.5015Z" fill="#FFD542"/>
<path fill-rule="evenodd" clip-rule="evenodd" d="M46 34.3773C36.3825 32.9815 26.0994 22 26.0994 22C26.0994 22 18.0329 33.8502 12 39.1049C12.7755 39.1375 13.5658 38.4516 13.5658 38.4516C19.3713 36.0496 26.0994 24.2504 26.0994 24.2504C26.0994 24.2504 34.9326 34.5502 44.5471 35.9461L44.7165 67L46 34.3773Z" fill="#F6C004"/>
<path fill-rule="evenodd" clip-rule="evenodd" d="M34.906 9H27.2516C20.1764 9 14.141 13.6636 12 20.0819C14.8604 15.5492 19.8804 12.5164 25.5826 12.5164H33.2355C42.087 12.5164 49.3295 19.8055 49.3295 28.7139L50.159 91.683L51 93V25.1975C51 16.2891 43.7575 9 34.906 9Z" fill="#FFDD72"/>
<path fill-rule="evenodd" clip-rule="evenodd" d="M34 83.5C34 84.3285 33.329 85 32.499 85C31.671 85 31 84.3285 31 83.5C31 82.6715 31.671 82 32.499 82C33.329 82 34 82.6715 34 83.5Z" fill="#486681"/>
<path fill-rule="evenodd" clip-rule="evenodd" d="M33 89.499C33 90.3269 32.3285 91 31.4979 91C30.6715 91 30 90.3269 30 89.499C30 88.671 30.6715 88 31.4979 88C32.3285 88 33 88.671 33 89.499Z" fill="#486681"/>
<path fill-rule="evenodd" clip-rule="evenodd" d="M33 95.501C33 96.329 32.3285 97 31.4979 97C30.6715 97 30 96.329 30 95.501C30 94.6731 30.6715 94 31.4979 94C32.3285 94 33 94.6731 33 95.501Z" fill="#486681"/>
<path fill-rule="evenodd" clip-rule="evenodd" d="M46.378 63H46V88.5801L46.378 89V63Z" fill="#F8C73E"/>
<path fill-rule="evenodd" clip-rule="evenodd" d="M48 65H48.352V41H48V65Z" fill="#F8C73E"/>
<path fill-rule="evenodd" clip-rule="evenodd" d="M46 61H46.352V51H46V61Z" fill="#F8C73E"/>
<path fill-rule="evenodd" clip-rule="evenodd" d="M48 52H48.352V35H48V52Z" fill="#F8C73E"/>
<path fill-rule="evenodd" clip-rule="evenodd" d="M49 79H49.352V54H49V79Z" fill="#F8C73E"/>
<path fill-rule="evenodd" clip-rule="evenodd" d="M47 86H47.476V69H47V86Z" fill="#F8C73E"/>
<path fill-rule="evenodd" clip-rule="evenodd" d="M55 0V19.252H57.5143V22.5094V25.6385C57.5143 25.9753 57.942 26.1285 58.1622 25.8704L66.3825 19.252H91V0H55Z" fill="#9013FE"/>
<path fill-rule="evenodd" clip-rule="evenodd" d="M61 6H86V4H61V6Z" fill="#F1F2F2"/>
<path fill-rule="evenodd" clip-rule="evenodd" d="M61 12H80V10H61V12Z" fill="#F1F2F2"/>
<path fill-rule="evenodd" clip-rule="evenodd" d="M61 16H77V14H61V16Z" fill="#F1F2F2"/>
</g>
</svg>
