<svg width="92" height="72" viewBox="0 0 92 72" fill="none" xmlns="http://www.w3.org/2000/svg">
<path fill-rule="evenodd" clip-rule="evenodd" d="M70.6144 44.3396C70.4748 44.5483 70.3716 44.7763 70.2599 45H64V27H70.2599C70.3716 27.2237 70.4748 27.4517 70.6144 27.6604L73.985 32.6723C75.3383 34.6836 75.3383 37.3143 73.985 39.3255L70.6144 44.3396Z" fill="#1F191A"/>
<path fill-rule="evenodd" clip-rule="evenodd" d="M21.4011 27.6604L18.0186 32.6723C16.6605 34.6836 16.6605 37.3143 18.0186 39.3255L21.4011 44.3375C21.5412 44.5483 21.6425 44.7763 21.7568 45H28V27H21.7568C21.6425 27.2237 21.5412 27.4517 21.4011 27.6604Z" fill="#1F191A"/>
<path fill-rule="evenodd" clip-rule="evenodd" d="M72.9895 38.8118L69.6286 43.8047C69.1852 44.4601 68.8789 45.2013 68.7268 45.9788L67.5744 51.8864C67.1096 54.2554 65.2589 56.1103 62.8876 56.573L56.9799 57.7254C56.2024 57.8775 55.4612 58.1838 54.8036 58.625L49.8127 61.9879C47.8099 63.3374 45.1901 63.3374 43.1873 61.9879L38.1964 58.625C37.5388 58.1838 36.7976 57.8775 36.0201 57.7254L30.1123 56.573C27.7411 56.1103 25.8904 54.2554 25.4277 51.8864L24.2732 45.9788C24.1232 45.2013 23.8148 44.4601 23.3714 43.8026L20.0105 38.8118C18.6632 36.809 18.6632 34.1894 20.0105 32.1866L23.3714 27.1958C23.8148 26.5382 24.1232 25.7971 24.2732 25.0196L25.4277 19.112C25.8904 16.7409 27.7411 14.8902 30.1123 14.4254L36.0201 13.273C36.7976 13.1209 37.5388 12.8146 38.1964 12.3712L43.1873 9.01048C45.1901 7.66317 47.8099 7.66317 49.8127 9.01048L54.8036 12.3712C55.4612 12.8146 56.2024 13.1209 56.9799 13.273L62.8898 14.4275C65.2589 14.8902 67.1096 16.743 67.5744 19.112L68.7268 25.0196C68.8789 25.7971 69.1852 26.5382 69.6286 27.1958L72.9895 32.1866C74.3368 34.1894 74.3368 36.809 72.9895 38.8118Z" fill="#FFD542"/>
<path fill-rule="evenodd" clip-rule="evenodd" d="M64 35.4989C64 45.716 55.7182 54 45.5011 54C35.2818 54 27 45.716 27 35.4989C27 25.2818 35.2818 17 45.5011 17C55.7182 17 64 25.2818 64 35.4989Z" fill="#FFE694"/>
<path fill-rule="evenodd" clip-rule="evenodd" d="M53.4983 48.7334L45.888 44.8332C45.7399 44.7566 45.5643 44.7587 45.4163 44.8396L37.9096 48.9378C37.5415 49.1379 37.1037 48.8271 37.1671 48.4098L38.5018 39.9197C38.5272 39.7536 38.4722 39.5854 38.3516 39.4704L32.1584 33.5499C31.8538 33.2583 32.0125 32.7431 32.4292 32.6771L40.8623 31.3316C41.0273 31.3039 41.169 31.1996 41.2409 31.0463L44.9192 23.2907C45.1011 22.9096 45.6384 22.9011 45.8287 23.2779L49.7079 30.9356C49.7841 31.0846 49.9279 31.1889 50.0929 31.2102L58.5599 32.3364C58.9745 32.3918 59.1479 32.9027 58.8518 33.2029L52.813 39.281C52.6967 39.4002 52.6438 39.5684 52.6734 39.7344L54.2259 48.1862C54.3021 48.6014 53.8727 48.925 53.4983 48.7334Z" fill="#486681"/>
<mask id="mask0" mask-type="alpha" maskUnits="userSpaceOnUse" x="0" y="0" width="92" height="72">
<path fill-rule="evenodd" clip-rule="evenodd" d="M0 72H92V0H0V72Z" fill="white"/>
</mask>
<g mask="url(#mask0)">
<path fill-rule="evenodd" clip-rule="evenodd" d="M45 5H47V0H45V5Z" fill="#486681"/>
<path fill-rule="evenodd" clip-rule="evenodd" d="M54.2665 6L52 5.4538L52.7335 3L55 3.5462L54.2665 6Z" fill="#486681"/>
<path fill-rule="evenodd" clip-rule="evenodd" d="M60.0849 10L58 8.83676L60.9151 4L63 5.16324L60.0849 10Z" fill="#486681"/>
<path fill-rule="evenodd" clip-rule="evenodd" d="M64.3559 13L63 11.6386L64.6441 10L66 11.3633L64.3559 13Z" fill="#486681"/>
<path fill-rule="evenodd" clip-rule="evenodd" d="M69.1516 20L68 17.9026L72.8484 15L74 17.0974L69.1516 20Z" fill="#486681"/>
<path fill-rule="evenodd" clip-rule="evenodd" d="M70.4176 26L70 23.5557L72.5824 23L73 25.4443L70.4176 26Z" fill="#486681"/>
<path fill-rule="evenodd" clip-rule="evenodd" d="M20.4079 25L18 24.1259L18.5921 22L21 22.8741L20.4079 25Z" fill="#486681"/>
<path fill-rule="evenodd" clip-rule="evenodd" d="M23.8072 19L19 16.0466L20.1928 14L25 16.9557L23.8072 19Z" fill="#486681"/>
<path fill-rule="evenodd" clip-rule="evenodd" d="M27.6155 13L26 11.3348L27.3845 10L29 11.6652L27.6155 13Z" fill="#486681"/>
<path fill-rule="evenodd" clip-rule="evenodd" d="M32.2887 9L30 4.11899L31.7113 3L34 7.88101L32.2887 9Z" fill="#486681"/>
<path fill-rule="evenodd" clip-rule="evenodd" d="M38.662 6L38 3.5341L40.338 3L41 5.46375L38.662 6Z" fill="#486681"/>
<path fill-rule="evenodd" clip-rule="evenodd" d="M45 72H47V67H45V72Z" fill="#486681"/>
<path fill-rule="evenodd" clip-rule="evenodd" d="M52.7319 68L52 65.4997L54.2681 65L55 67.4984L52.7319 68Z" fill="#486681"/>
<path fill-rule="evenodd" clip-rule="evenodd" d="M60.9151 69L58 64.1637L60.0849 63L63 67.8363L60.9151 69Z" fill="#486681"/>
<path fill-rule="evenodd" clip-rule="evenodd" d="M64.6441 61L63 59.3641L64.3559 58L66 59.6377L64.6441 61Z" fill="#486681"/>
<path fill-rule="evenodd" clip-rule="evenodd" d="M72.8484 58L68 55.0964L69.1516 53L74 55.9036L72.8484 58Z" fill="#486681"/>
<path fill-rule="evenodd" clip-rule="evenodd" d="M72.4654 49L70 48.2722L70.5366 46L73 46.7278L72.4654 49Z" fill="#486681"/>
<path fill-rule="evenodd" clip-rule="evenodd" d="M18.5905 50L18 47.871L20.4095 47L21 49.129L18.5905 50Z" fill="#486681"/>
<path fill-rule="evenodd" clip-rule="evenodd" d="M20.1928 58L19 55.9543L23.8072 53L25 55.0434L20.1928 58Z" fill="#486681"/>
<path fill-rule="evenodd" clip-rule="evenodd" d="M27.3845 62L26 60.6644L27.6155 59L29 60.3356L27.3845 62Z" fill="#486681"/>
<path fill-rule="evenodd" clip-rule="evenodd" d="M31.7113 69L30 67.8792L32.2887 63L34 64.1186L31.7113 69Z" fill="#486681"/>
<path fill-rule="evenodd" clip-rule="evenodd" d="M40.3395 69L38 68.5104L38.6605 66L41 66.4896L40.3395 69Z" fill="#486681"/>
</g>
</svg>
