<svg width="197" height="189" viewBox="0 0 197 189" fill="none" xmlns="http://www.w3.org/2000/svg">
<mask id="mask0" mask-type="alpha" maskUnits="userSpaceOnUse" x="1" y="1" width="195" height="187">
<path fill-rule="evenodd" clip-rule="evenodd" d="M195.773 89.5039L69.5447 1.11803L1.06307 98.9199L127.292 187.306L195.773 89.5043L127.291 187.306L1.06257 98.9195L69.5447 1.11694L195.773 89.5032L195.773 89.5039Z" fill="white"/>
</mask>
<g mask="url(#mask0)">
<path fill-rule="evenodd" clip-rule="evenodd" d="M92.9632 67.0204C90.5092 68.0118 88.6348 69.6617 86.6789 71.2026C81.1744 75.5364 77.2469 81.0816 73.9336 87.0893C72.9235 88.921 71.9158 90.7555 70.9077 92.5887C67.5024 91.5239 64.7013 91.9585 62.4556 93.7475C60.4694 95.3296 59.0201 97.359 57.5128 99.3224C54.5105 103.234 51.9289 107.437 49.4365 111.696C49.2901 111.946 48.8992 112.168 49.228 112.545C49.4649 112.817 49.8465 112.691 50.1538 112.686C53.5851 112.631 57.0398 112.647 60.4392 112.485C62.2966 112.397 64.3005 112.65 65.9375 111.936C69.4258 114.401 72.915 116.866 76.4039 119.33C75.1472 123.1 73.89 126.868 72.6348 130.638C72.7606 130.716 72.8873 130.794 73.0147 130.872C76.115 128.409 79.2143 125.945 82.3141 123.481C85.8442 125.924 89.3754 128.367 92.9055 130.81C92.9141 131.057 92.8646 131.309 92.941 131.553C94.0273 135.015 95.1085 138.478 96.2385 141.938C96.7739 143.576 97.4095 145.209 98.018 146.894C98.6116 146.667 98.8987 146.357 99.1626 146.02C102.443 141.839 105.683 137.627 108.534 133.141C109.632 131.413 110.783 129.682 111.337 127.647C112.079 124.911 111.66 122.108 109.198 119.341C111.203 117.024 113.236 114.727 115.208 112.384C120.571 106.011 124.199 98.663 125.774 90.1676C125.908 89.7588 126.097 89.3683 126.169 88.937C127.862 78.9986 127.505 68.6627 125.263 57.9671C124.892 56.2007 124.834 56.1878 123.048 56.4619C113.957 57.8603 105.47 60.3266 97.7664 64.1348C96.0766 64.9703 94.1227 65.5367 92.9632 67.0204ZM161.504 138.442C143.144 164.907 100.526 167.647 65.6716 144.14C29.2011 119.543 16.2681 76.7618 35.5195 49.7123C54.4758 23.078 98.6981 20.5443 134.315 46.4919C167.759 70.8581 180.319 111.96 161.504 138.442Z" fill="#324D5B"/>
</g>
<path fill-rule="evenodd" clip-rule="evenodd" d="M70.5218 94.2306C71.5402 92.3762 72.5576 90.5211 73.5787 88.6673C76.9254 82.5907 80.8977 76.9825 86.473 72.6064C88.4545 71.0519 90.3521 69.3838 92.8395 68.3865C94.6315 69.8069 96.425 71.2296 98.2181 72.6507L98.2282 72.5563C98.2698 72.5854 98.3093 72.6177 98.352 72.6453C99.8759 73.6121 98.9058 74.3209 98.629 75.0253C97.1785 78.7073 98.1483 82.4823 101.47 86.0625C104.882 89.7379 109.016 91.3754 113.534 90.8246C116.118 90.5094 117.872 89.1782 119.361 87.5219C121.559 89.1201 123.9 90.482 126.197 91.9187C124.622 100.52 120.958 107.955 115.532 114.397C113.535 116.765 111.479 119.086 109.449 121.43C109.325 121.529 109.191 121.619 109.077 121.729C104.719 125.93 99.9852 129.74 94.3913 132.656C93.9708 132.876 93.6189 133.261 92.9441 133.006C89.3553 130.522 85.7649 128.038 82.1766 125.554C84.1763 123.705 86.1982 121.877 88.1692 120.003C90.5845 117.703 92.3412 115.002 92.451 111.382C92.4951 109.929 92.2755 108.412 90.7074 107.225C89.0485 105.969 87.4972 106.291 86.0609 106.775C85.3879 107.001 84.7905 107.365 84.2044 107.723C81.6764 109.264 80.2081 111.612 79.1 114.219C78.0981 116.577 77.1432 118.962 76.1673 121.334C72.6208 118.829 69.0734 116.323 65.5259 113.817C64.8863 113.332 65.1067 112.853 65.1651 112.378C65.5949 108.906 66.3683 105.564 67.4734 102.363C68.4198 99.6191 69.5002 96.939 70.5218 94.2306Z" fill="#FDFEFE"/>
<path fill-rule="evenodd" clip-rule="evenodd" d="M93.0636 67.9578C94.2605 66.4231 96.2603 65.8227 97.9919 64.9498C105.889 60.9686 114.574 58.3578 123.863 56.8379C125.69 56.5392 125.749 56.5534 126.111 58.3638C127.139 63.5119 127.744 68.5822 127.909 73.5711C128.095 79.2094 127.718 84.7435 126.753 90.1681C126.675 90.6117 126.479 91.0146 126.338 91.4358C124.045 90.0062 121.707 88.6528 119.514 87.0554C119.591 86.8697 119.649 86.6721 119.751 86.5027C123.256 80.6891 117.906 71.766 109.864 69.9456C105.781 69.0221 102.642 69.9453 100.192 72.2531C99.6114 72.8025 99.1329 72.7786 98.4228 72.2206C96.6366 70.7994 94.8488 69.3783 93.0636 67.9578Z" fill="#FFEC00"/>
<path fill-rule="evenodd" clip-rule="evenodd" d="M92.0805 132.472C92.7221 132.699 93.0777 132.301 93.4928 132.065C99.0147 128.937 103.742 124.954 108.122 120.596C108.236 120.483 108.369 120.387 108.494 120.282C110.801 122.978 111.105 125.789 110.272 128.575C109.652 130.649 108.457 132.439 107.313 134.223C104.346 138.855 101.008 143.227 97.6316 147.569C97.3599 147.918 97.0666 148.242 96.4759 148.493C95.9439 146.818 95.3835 145.196 94.9214 143.564C93.9462 140.119 93.0191 136.669 92.0878 133.22C92.0213 132.976 92.0804 132.722 92.0805 132.472Z" fill="#FFEC00"/>
<path fill-rule="evenodd" clip-rule="evenodd" d="M69.9107 93.2661C68.9026 95.8801 67.8389 98.4678 66.9018 101.115C65.8073 104.203 65.026 107.422 64.5691 110.76C64.5069 111.216 64.2909 111.679 64.8915 112.136C63.3064 112.85 61.3782 112.627 59.5867 112.736C56.3092 112.933 52.981 112.959 49.6722 113.052C49.3765 113.06 49.0072 113.187 48.7822 112.926C48.4698 112.563 48.8491 112.342 48.9931 112.098C51.4448 107.928 53.9824 103.811 56.9224 99.9716C58.3982 98.0447 59.8189 96.0544 61.7516 94.4927C63.9365 92.7275 66.6416 92.2711 69.9107 93.2661Z" fill="#FFEC00"/>
<path fill-rule="evenodd" clip-rule="evenodd" d="M75.8609 119.815C76.8606 117.428 77.8392 115.031 78.865 112.658C79.9983 110.036 81.4854 107.667 84.0088 106.089C84.5933 105.724 85.1895 105.351 85.8587 105.115C87.2866 104.611 88.8261 104.267 90.4498 105.498C91.9842 106.662 92.1796 108.176 92.115 109.629C91.9537 113.251 90.1774 115.976 87.753 118.31C85.7775 120.213 83.7502 122.071 81.7451 123.948C78.6035 126.481 75.4618 129.013 72.3187 131.546C72.1924 131.468 72.066 131.391 71.9407 131.313C73.2459 127.481 74.5542 123.648 75.8609 119.815Z" fill="#FFEC00"/>
<path fill-rule="evenodd" clip-rule="evenodd" d="M116.441 79.7005C116.656 77.7454 113.653 74.5002 110.609 73.1785C107.749 71.9364 103.489 72.5472 101.954 74.4669C99.995 76.9161 99.4766 80.1308 101.149 82.5588C101.589 82.3636 101.418 81.9015 101.449 81.5542C101.612 79.7254 102.367 78.2429 103.731 77.103C104.302 76.6264 104.77 76.348 105.646 77.2136C106.951 78.4997 108.889 78.1241 109.07 76.5623C109.175 75.6582 109.589 75.6201 110.399 75.8136C112.82 76.3941 114.799 77.7048 116.441 79.7005ZM97.9541 72.8834C98.6359 73.4223 99.1039 73.4353 99.686 72.8762C102.136 70.5244 105.23 69.5353 109.207 70.3633C117.04 71.9954 122.077 80.7568 118.517 86.6224C118.413 86.7933 118.352 86.9913 118.272 87.1778C116.75 88.9011 114.977 90.3046 112.421 90.7114C107.953 91.4208 103.937 89.908 100.702 86.3124C97.5516 82.8115 96.7237 79.0326 98.2788 75.2661C98.5747 74.5463 99.5542 73.7977 98.0868 72.8726C98.045 72.847 98.0073 72.8158 97.9678 72.787L97.9541 72.8834Z" fill="#324D5B"/>
<path fill-rule="evenodd" clip-rule="evenodd" d="M117.9 79.82C116.1 77.7745 114 76.3733 111.495 75.6535C110.657 75.4133 110.238 75.4239 110.189 76.2961C110.105 77.8026 108.155 78.0434 106.743 76.7093C105.795 75.8116 105.335 76.0522 104.784 76.4788C103.468 77.4994 102.794 78.892 102.745 80.6594C102.736 80.995 102.94 81.4552 102.504 81.6167C100.644 79.1491 100.966 76.0573 102.805 73.8021C104.245 72.0345 108.546 71.7142 111.54 73.1054C114.727 74.5857 117.994 77.9332 117.9 79.82Z" fill="#FDFEFE"/>
</svg>
