<svg width="74" height="45" viewBox="0 0 74 45" fill="none" xmlns="http://www.w3.org/2000/svg">
<path fill-rule="evenodd" clip-rule="evenodd" d="M0 45H45V33H0V45Z" fill="#FFD542"/>
<path fill-rule="evenodd" clip-rule="evenodd" d="M24 45H35V33H24V45Z" fill="#FFEAA9"/>
<path fill-rule="evenodd" clip-rule="evenodd" d="M35 45H39V33H35V45Z" fill="#FFEAA9"/>
<path fill-rule="evenodd" clip-rule="evenodd" d="M41.392 26H38.7595H37.0008H27.0038H5V34H27.0038H37.0008H38.7595H41.392H47V26H41.392Z" fill="#1F191A"/>
<path fill-rule="evenodd" clip-rule="evenodd" d="M5 33H50V21H5V33Z" fill="#FFD542"/>
<path fill-rule="evenodd" clip-rule="evenodd" d="M26 33H37V21H26V33Z" fill="#FFEAA9"/>
<path fill-rule="evenodd" clip-rule="evenodd" d="M40 33H44V21H40V33Z" fill="#FFEAA9"/>
<path fill-rule="evenodd" clip-rule="evenodd" d="M41.3927 13H38.7594H37.0011H27.0022H5V21H27.0022H37.0011H38.7594H41.3927H47V13H41.3927Z" fill="#1F191A"/>
<path fill-rule="evenodd" clip-rule="evenodd" d="M1 21H46V9H1V21Z" fill="#FFD542"/>
<path fill-rule="evenodd" clip-rule="evenodd" d="M26 21H37V9H26V21Z" fill="#FFEAA9"/>
<path fill-rule="evenodd" clip-rule="evenodd" d="M38 21H42V9H38V21Z" fill="#FFEAA9"/>
<path fill-rule="evenodd" clip-rule="evenodd" d="M46.3774 9.30103H40.3187H37.4717H35.5722H30.8431C28.0834 13.0204 26.4263 17.6264 26.4263 22.6372C26.4263 22.949 26.459 23.2541 26.4721 23.5593L26.4503 23.5836C26.4568 23.787 26.4896 23.986 26.5027 24.1851C26.5311 24.5831 26.5616 24.9767 26.6075 25.3681C26.6468 25.6909 26.7014 26.0138 26.7538 26.3322C26.8193 26.728 26.8848 27.1238 26.9721 27.5086C27.0376 27.8071 27.1184 28.099 27.1948 28.3931C27.3018 28.7911 27.4066 29.1891 27.5332 29.5783C27.6184 29.8437 27.721 30.1024 27.8149 30.3633C27.9611 30.7636 28.1074 31.166 28.2755 31.553C28.293 31.595 28.3061 31.6414 28.3258 31.6835L28.3323 31.6746C28.8192 32.7758 29.3847 33.8328 30.0331 34.8301L30.0266 34.8345C30.0397 34.8544 30.0549 34.8699 30.0659 34.8876C30.5658 35.6505 31.1139 36.3758 31.699 37.0701C31.7295 37.1055 31.7536 37.1475 31.7841 37.1829L31.7929 37.174C35.0482 40.9796 39.5589 43.6309 44.6701 44.5198V34.2883V32.8709H48.0826V20.9522H46.3774V9.30103Z" fill="#1F191A"/>
<mask id="mask0" mask-type="alpha" maskUnits="userSpaceOnUse" x="28" y="0" width="45" height="45">
<path fill-rule="evenodd" clip-rule="evenodd" d="M28.464 0.405029H72.3681V44.8714H28.464V0.405029Z" fill="white"/>
</mask>
<g mask="url(#mask0)">
<path fill-rule="evenodd" clip-rule="evenodd" d="M72.3683 22.6376C72.3683 34.9167 62.5412 44.8719 50.4151 44.8719C38.2933 44.8719 28.464 34.9167 28.464 22.6376C28.464 10.3584 38.2933 0.40332 50.4151 0.40332C62.5412 0.40332 72.3683 10.3584 72.3683 22.6376Z" fill="#FFD542"/>
</g>
<path fill-rule="evenodd" clip-rule="evenodd" d="M69.8662 22.6376C69.8662 33.5171 61.157 42.3356 50.415 42.3356C39.6731 42.3356 30.9661 33.5171 30.9661 22.6376C30.9661 11.7582 39.6731 2.9397 50.415 2.9397C61.157 2.9397 69.8662 11.7582 69.8662 22.6376Z" fill="#FFDB6C"/>
<path fill-rule="evenodd" clip-rule="evenodd" d="M30.363 31.6837L59.3465 2.32918C56.8859 1.21691 54.1896 0.54911 51.3512 0.42749L28.4875 23.5839C28.6054 26.4607 29.267 29.1894 30.363 31.6837Z" fill="white"/>
<path fill-rule="evenodd" clip-rule="evenodd" d="M33.8212 37.1839L64.7784 5.83035C64.0448 5.18687 63.2719 4.59425 62.4576 4.05249L32.0636 34.8355C32.5985 35.6581 33.1858 36.4409 33.8212 37.1839Z" fill="white"/>
<path fill-rule="evenodd" clip-rule="evenodd" d="M52.9691 25.7818C52.9691 25.4678 52.8883 25.2091 52.7268 24.999C52.563 24.7912 52.2683 24.5966 51.8425 24.4175V27.1705C52.5936 26.9339 52.9691 26.4717 52.9691 25.7818ZM49.4976 17.6333C48.8644 17.8566 48.5479 18.2701 48.5479 18.865C48.5479 19.4642 48.8644 19.9175 49.4976 20.2293V17.6333ZM49.4976 31.8496V30.2177C47.6265 29.9169 45.9039 29.059 44.3253 27.6415L46.382 25.1096C47.5304 26.1268 48.5697 26.7747 49.4976 27.06V23.7232C47.9518 23.3207 46.8165 22.7812 46.0938 22.1001C45.3733 21.4212 45.0109 20.4439 45.0109 19.168C45.0109 17.8921 45.4235 16.8395 46.2488 16.0103C47.0741 15.1811 48.157 14.6857 49.4976 14.5199V13.4231H51.8425V14.5663C53.3162 14.7742 54.7812 15.3955 56.2419 16.426L54.4275 19.0662C53.4996 18.394 52.6372 17.9473 51.8425 17.7218V20.9458C53.4319 21.366 54.6066 21.9254 55.3685 22.6264C56.1261 23.3296 56.506 24.3202 56.506 25.605C56.506 26.8875 56.0825 27.9467 55.2354 28.7825C54.386 29.6184 53.2573 30.1181 51.8425 30.2818V31.8496H49.4976Z" fill="#3F3E40"/>
</svg>
