<svg width="85" height="96" viewBox="0 0 85 96" fill="none" xmlns="http://www.w3.org/2000/svg">
<mask id="mask0" mask-type="alpha" maskUnits="userSpaceOnUse" x="0" y="0" width="85" height="95">
<path fill-rule="evenodd" clip-rule="evenodd" d="M84.8006 94.373H0V0.657959L84.8006 0.657959V94.373Z" fill="white"/>
</mask>
<g mask="url(#mask0)">
<path fill-rule="evenodd" clip-rule="evenodd" d="M42.2143 85.6715C61.697 85.6887 77.7025 70.3218 77.7436 51.5581C77.7854 32.3866 62.0122 16.8509 42.4877 16.833C23.005 16.8158 7.00025 32.1834 6.95846 50.9471C6.91667 70.1179 22.6898 85.6543 42.2143 85.6715ZM42.5239 -1.05864C43.9391 -1.05864 45.3643 -1.16403 46.7675 -1.03384C48.8698 -0.838895 50.3092 0.352132 50.703 2.35876C51.1082 4.42119 50.0308 5.87673 48.1346 6.77982C47.1656 7.24135 45.6235 7.13389 45.9451 8.87049C46.227 10.3935 47.5622 10.3198 48.6757 10.5389C50.2872 10.8551 51.9645 10.957 53.5108 11.4537C54.9516 11.9173 55.9099 11.8057 56.8471 10.5678C57.6567 9.49735 58.892 8.88013 60.2754 9.45808C61.7523 10.0746 63.0641 11.1706 62.7872 12.8348C62.4351 14.9538 63.8532 15.635 65.2075 16.534C79.3884 25.9403 86.5 39.0395 84.4551 55.6044C82.1254 74.4803 70.8402 86.7254 51.769 91.4158C28.1837 97.2159 3.78157 80.9369 0.500574 57.6358C-1.97363 40.0604 4.78103 26.5623 19.5023 16.5326C20.8467 15.6164 22.2655 14.9414 21.9177 12.828C21.6429 11.1609 22.9569 10.0691 24.433 9.45464C25.8192 8.87876 27.0432 9.50837 27.8621 10.5713C28.802 11.7905 29.754 11.887 31.204 11.4564C33.1016 10.8937 35.1239 10.738 37.0789 10.3419C37.8857 10.1786 38.6925 9.89068 38.7676 8.86636C38.8327 7.9798 38.6245 7.39359 37.579 7.10427C34.9964 6.38993 33.3594 4.79317 34.1046 2.04189C34.8314 -0.641194 37.1122 -1.23361 39.6919 -1.10341C40.6333 -1.05588 41.5797 -1.09584 42.5239 -1.09584V-1.05864Z" fill="#FFEC00"/>
</g>
<path fill-rule="evenodd" clip-rule="evenodd" d="M44.0722 43.5249C44.0722 40.7102 44.0568 38.7796 44.0771 36.8491C44.0932 35.307 43.694 34.1417 41.8013 34.1246C39.9226 34.1075 39.4624 35.2243 39.4659 36.7903C39.4785 42.2427 39.4778 47.6944 39.4631 53.1461C39.4596 54.6013 39.6508 55.9526 41.4167 56.2815C43.17 56.6084 44.1682 55.8329 44.8358 54.1766C47.8969 46.5824 51.0749 39.032 54.2005 31.461C54.8617 29.8608 55.1538 28.2729 53.0237 27.5261C51.0294 26.8279 50.4319 28.2059 49.8302 29.6967C48.0566 34.0952 46.1905 38.4589 44.0722 43.5249ZM41.6353 86.2372C22.3279 86.2201 6.72887 70.7964 6.7709 51.7647C6.81153 33.1372 22.6396 17.8811 41.9057 17.8982C61.2144 17.916 76.8128 33.339 76.7707 52.3713C76.7301 70.9988 60.902 86.2543 41.6353 86.2372Z" fill="#EEEFF3"/>
<path fill-rule="evenodd" clip-rule="evenodd" d="M50.2151 30.0406C50.808 28.5358 51.3968 27.1449 53.3618 27.8497C55.4607 28.6034 55.1729 30.2063 54.5213 31.8215C53.5881 34.1373 52.6501 36.4512 51.712 38.7649C49.5543 44.0866 47.3962 49.4078 45.2939 54.7505C44.6362 56.4223 43.6526 57.2051 41.925 56.8751C40.185 56.5431 39.9966 55.1791 40 53.7102C40.0145 48.2073 40.0152 42.7044 40.0028 37.2009C39.9994 35.6201 40.4528 34.4929 42.304 34.5101C44.1689 34.5274 44.5623 35.7036 44.5464 37.2602C44.5264 39.2089 44.5416 41.1575 44.5416 43.9987C46.6288 38.8851 48.4675 34.4805 50.2151 30.0406Z" fill="#ACB5BD"/>
</svg>
